inDegrees=no
num_controls=7
num_derivatives=13
num_iterations=74
num_multipliers=7
num_parameters=0
num_slacks=7
num_states=26
objective=0.351195
objective_accelerations=0.030379
objective_balance=0.006337
objective_effort=0.047442
objective_height=0.262535
objective_ligament=0.004502
solver_duration=1075.631579
status=Solve_Succeeded
success=true
DataType=double
version=3
OpenSimVersion=4.5
endheader
time	/jointset/ground_pelvis/pelvis_tilt/value	/jointset/ground_pelvis/pelvis_tx/value	/jointset/ground_pelvis/pelvis_ty/value	/jointset/hip_l/hip_flexion_l/value	/jointset/hip_l/hip_adduction_l/value	/jointset/hip_l/hip_rotation_l/value	/jointset/back/lumbar_extension/value	/jointset/patellofemoral_l/patellar_flexion_l/value	/jointset/knee_l/knee_flexion_l/value	/jointset/knee_l/knee_adduction_l/value	/jointset/knee_l/knee_rotation_l/value	/jointset/ankle_l/ankle_angle_l/value	/jointset/subtalar_l/subtalar_angle_l/value	/jointset/ground_pelvis/pelvis_tilt/speed	/jointset/ground_pelvis/pelvis_tx/speed	/jointset/ground_pelvis/pelvis_ty/speed	/jointset/hip_l/hip_flexion_l/speed	/jointset/hip_l/hip_adduction_l/speed	/jointset/hip_l/hip_rotation_l/speed	/jointset/back/lumbar_extension/speed	/jointset/patellofemoral_l/patellar_flexion_l/speed	/jointset/knee_l/knee_flexion_l/speed	/jointset/knee_l/knee_adduction_l/speed	/jointset/knee_l/knee_rotation_l/speed	/jointset/ankle_l/ankle_angle_l/speed	/jointset/subtalar_l/subtalar_angle_l/speed	/forceset/tau_hip_flexion_l	/forceset/tau_hip_adduction_l	/forceset/tau_hip_rotation_l	/forceset/tau_knee_flexion_l	/forceset/tau_ankle_angle_l	/forceset/tau_subtalar_angle_l	/forceset/tau_lumbar_extension	lambda_cid13_p0	lambda_cid13_p1	lambda_cid13_p2	lambda_cid13_p3	lambda_cid13_p4	lambda_cid13_p5	lambda_cid14_p0	/jointset/ground_pelvis/pelvis_tilt/accel	/jointset/ground_pelvis/pelvis_tx/accel	/jointset/ground_pelvis/pelvis_ty/accel	/jointset/hip_l/hip_flexion_l/accel	/jointset/hip_l/hip_adduction_l/accel	/jointset/hip_l/hip_rotation_l/accel	/jointset/back/lumbar_extension/accel	/jointset/patellofemoral_l/patellar_flexion_l/accel	/jointset/knee_l/knee_flexion_l/accel	/jointset/knee_l/knee_adduction_l/accel	/jointset/knee_l/knee_rotation_l/accel	/jointset/ankle_l/ankle_angle_l/accel	/jointset/subtalar_l/subtalar_angle_l/accel	gamma_cid13_p0	gamma_cid13_p1	gamma_cid13_p2	gamma_cid13_p3	gamma_cid13_p4	gamma_cid13_p5	gamma_cid14_p0
1	-0.1759358233586935	-0.0180962411586536	0.3972795078216142	2.0943524587396	-0.2338679894326867	0.1078772085924091	-0.4362743918373754	2.09433464167501	2.094334641675023	0.1733741478265187	0.1740179945057368	0.433090619214073	0.1478917154640225	-0.0009125093499153582	0.0004290259163360368	-2.643156681726963e-05	0.0002866137520449343	-0.0004143823468515948	-0.0009222755650770991	-0.0004784931994135973	0.0003945463895606916	0.0003945463895611605	0.0007114200125045542	0.000221572643462925	0.001053913467659995	-0.0001797929045145375	-0.107198991947372	-0.03770834161478263	-0.06413233257251381	-0.486242857472879	0.1465635183735105	0.02409326980808287	0.1491412799603888	7.60581967172676	-4.557152366336724	-7.943739375803648	-13.63421295874957	-630.0457021746688	-74.26793737567397	-0.02131099236227009	-0.3487552637548698	0.1457605721797886	0.01412537795756487	0.03733011722550526	-0.09936252133580858	-0.1279535170749455	-0.06378292925295265	0.06405911341874246	0.06405911341873896	0.08563939557309896	0.0598736072401691	0.3930894848665321	0.01974340800013518	-2.537969734162331e-11	8.977981973564623e-11	-2.925971209424531e-10	2.003413920568139e-10	-5.705730391945805e-11	-8.414360971939786e-11	5.114325902877954e-11
1.01	-0.1759625370079464	-0.01808467337102372	0.3972800452611711	2.094357006007888	-0.2338771473394201	0.1078610657998167	-0.4362820041136098	2.094341522027203	2.094341522027214	0.1733859206175303	0.1740230754955816	0.4331208522738025	0.1478908618169871	-0.004444402118130355	0.00188406352177514	0.0001436868813740659	0.000601818958819356	-0.001422001421833756	-0.002323490575777931	-0.0010090710086531	0.0009535169959973932	0.0009535169959978104	0.001647823629002883	0.0007962787364043303	0.004998482066805855	4.26419929884785e-06	-0.1075502979949882	-0.03776907795875774	-0.06415246368774075	-0.4863971384200591	0.1463176631103291	0.0241401169769738	0.1494653057286263	7.501949060601578	-4.566216790850744	-7.934406298760977	-13.5342435833015	-630.4625440807057	-74.33524290094167	-0.02130837190653878	-0.3575335095360564	0.1453052676482039	0.01992015816374745	0.02546258603267913	-0.1021818147401401	-0.1487866488828629	-0.04246155086172534	0.04761495412379464	0.04761495412380966	0.09834370873840942	0.05651726211502252	0.3960080595758379	0.01701703355954664	-1.531499131174019e-10	1.307269942648196e-10	-6.874728318644734e-10	6.265868160106176e-10	-1.524327759108922e-10	-2.904486278635424e-10	1.081821572637949e-10
1.02	-0.1760249950301186	-0.01805856922475491	0.3972825769011926	2.094364074700962	-0.2338965254797366	0.1078303946259504	-0.4362938754367516	2.094353151869435	2.094353151869422	0.1734071980175326	0.1740339531767073	0.4331907045219502	0.1478917047753874	-0.008061383933593366	0.003336297644122518	0.000372408526120865	0.0007908987107642315	-0.002458429063241948	-0.003827951819087627	-0.001330302581981899	0.001344444397139102	0.001344444397139485	0.0026123418075088	0.001380910901101154	0.008977751151440037	0.0001595281826166865	-0.1079016040426032	-0.03782981430274153	-0.06417259480293681	-0.4865514193672422	0.1460718078471438	0.02418696414584785	0.1497893314968625	7.399136704647914	-4.575391782974233	-7.925140949475171	-13.45652564022668	-630.8798378558353	-74.39553638560461	-0.02130483884122679	-0.3657730732045052	0.1451998755614166	0.02584601726869861	0.01210502625951667	-0.1051242346210069	-0.148602763596733	-0.02191368207075538	0.03045047235959965	0.03045047235959968	0.09126230797459318	0.06185882159124112	0.4000295819641557	0.01398478390102123	-2.321797893459914e-10	5.948417241586394e-11	-9.580631918083362e-10	9.203122815062135e-10	-3.008913209373943e-10	-8.59620689541881e-10	1.782961101062553e-10
1.03	-0.1761241608184222	-0.01801793168791926	0.3972877561638261	2.094372223187853	-0.2339264216785943	0.1077839001522829	-0.4363075119053116	2.094367703065521	2.094367703065407	0.1734384659838802	0.1740506090441274	0.4333006587662961	0.1478940111835793	-0.01179795486465264	0.004793297925657529	0.0006798057673845081	0.0008009697421388651	-0.003527574936476087	-0.005508360074765429	-0.001320912306397519	0.001522761937693854	0.00152276193769389	0.003659884198709445	0.001944792384418851	0.01303193987591989	0.0003003493445310703	-0.1086140052340399	-0.03812775516949073	-0.06420732728566103	-0.4867412822568269	0.1455205634740093	0.02438276595915598	0.1504472720352266	7.191042351324815	-4.659613307067945	-7.871026430556359	-13.32548272087288	-631.6247870928539	-74.64699428307641	-0.0212964310866357	-0.3815262403532844	0.1462635791249043	0.03564075176317254	-0.01021618770967285	-0.1088241456682499	-0.1833724393354118	0.02377720610597046	0.00506741221695335	0.005067412216925575	0.1142952323665551	0.05283256969575762	0.4109397826831261	0.01392032504664728	-3.107123151710378e-10	-1.290344531450184e-11	-1.227385333885075e-09	1.212685502527745e-09	-4.498915299744587e-10	-1.432495476154244e-09	2.485434818732814e-10
